# xmcd
#
# Track frame offsets:
#	150
#	5492
#	33457
#	64014
#	94432
#	132769
#
# Disc length: 2053 seconds
#
# Revision: 1
# Processed by: cddbd v1.5.2PL0 Copyright (c) Steve Scherf et al.
# Submitted via: audiograbber 1.83.01
#
DISCID=4a080306
DTITLE=Grateful Dead - 78-12-17 Fox Theatre, Atlanta GA
DYEAR=1900
DGENRE=
TTITLE0=Tuning
TTITLE1=I Need A Miracle
TTITLE2=Bertha
TTITLE3=Good Lovin'
TTITLE4=Ramble On Rose
TTITLE5=From The Heart Of Me
EXTD=
EXTT0=
EXTT1=
EXTT2=
EXTT3=
EXTT4=
EXTT5=
PLAYORDER=
